<svg width="80" height="74" viewBox="0 0 80 74" fill="none" xmlns="http://www.w3.org/2000/svg">
<path d="M12 44.923C12 41.2385 12.2246 36.7449 12.2246 33.0632C13.3679 33.0632 16.5682 32.7504 17.4991 33.3633C17.9425 33.6551 21.1986 35.7633 23.4696 34.6252C25.0813 33.8176 25.8138 35.1625 27.3582 34.1653C27.965 33.7735 28.5482 33.4919 29.278 33.3633C30.6838 33.1154 32.5032 32.9796 33.7537 33.8176C34.0771 34.0342 35.1908 34.7632 36.3835 34.4289C38.159 33.9313 38.7327 33.8269 39.8993 33.5371C41.1739 33.2205 41.9089 33.4407 42.921 34.2438C43.5959 34.7794 43.2858 35.0403 44.4579 35.8367C45.1905 36.3345 45.9201 35.9469 46.0449 35.8367C46.4446 35.4835 46.978 35.2211 47.408 34.8945C48.0073 34.4392 48.6288 33.9143 49.3221 33.61C51.089 32.8346 53.3925 33.2751 54.2863 35.0403C55.063 36.5742 57.8074 34.2383 58.7222 33.7951C60.2384 33.0606 62.2469 32.808 63.8852 32.808C64.4164 32.808 64.6092 33.0441 65.0041 33.3633C65.5051 33.768 65.5721 33.9034 65.5721 34.5467C65.5721 36.1441 65.4152 37.7341 65.2881 39.3254C65.1443 41.1263 65.1632 42.9275 65.1632 44.7323C65.1632 48.6785 66.1043 52.5554 66.0833 56.4996C66.0584 61.1634 65.7103 64.1388 63.7979 68.2936C63.364 69.2361 62.5525 71.5489 60.358 71.8565C58.3272 72.1412 20.8723 71.9261 20.5027 71.8565C19.3628 71.6421 18.4148 71.8565 17.0229 70.5C14.1697 66.5212 14.022 62.5307 14.022 61.8913C14.022 60.6974 14.169 60.8099 14.022 59.6487C13.8162 58.9628 13.5149 54.8983 13.278 54.2224C13.0343 53.5273 12.9687 52.707 12.6645 52.0462C12.5293 51.7523 12.5206 51.1036 12.5112 50.7786C12.4959 50.2492 12.3831 49.6398 12.301 49.1128C12.082 47.7072 12 46.3659 12 44.923Z" stroke="#437457" stroke-linecap="round"/>
<path d="M62.296 32.8101C63.2917 29.4823 63.8416 25.041 64.3225 22.5327C65.1618 18.1542 66.2607 13.8135 66.85 9.39126C66.975 8.45281 67.0748 7.47556 66.9238 6.53637C66.7188 5.26064 65.6795 4.29937 64.8507 3.37861C63.7285 2.1319 61.7675 1.53966 60.233 2.4195C58.0306 3.68233 56.5229 6.24202 55.1439 8.2751C52.7423 11.8156 50.544 15.487 49.0096 19.4815C48.7327 20.2024 48.3445 20.8734 48.0895 21.6016C47.7872 22.4649 47.6466 23.3649 47.3511 24.2266C46.6812 26.1805 45.9563 28.0095 45.0792 29.8802C44.0365 32.1043 43.9208 32.0138 43.1392 34.3292" stroke="#437457" stroke-linecap="round"/>
<path d="M53.9814 16.2652C53.9814 15.0446 54.6574 14.2882 55.5888 13.5786C56.7581 12.6879 57.7959 12.7317 59.1955 12.7317C60.3246 12.7317 62.2011 13.4364 62.9783 12.3278C63.4798 11.6125 63.6973 10.9209 63.853 10.0619C63.8894 9.86102 63.8095 9.39347 64.0007 9.29907" stroke="#437457" stroke-linecap="round"/>
<path d="M51.637 23.4167C51.637 22.3993 52.5163 21.8501 53.375 21.4985C54.4632 21.0529 55.7971 21.5995 56.9022 21.5995C57.7706 21.5995 58.5173 21.6653 59.0946 20.8816C59.7224 20.0291 59.9928 18.7533 60.3271 17.7631" stroke="#437457" stroke-linecap="round"/>
<path d="M49.2195 30.9418C49.338 29.7713 51.4373 29.3818 52.332 29.3209C52.9957 29.2757 53.661 29.1517 54.3313 29.2479C54.842 29.3213 55.4279 29.4414 55.8762 29.1077C56.9311 28.3227 57.6466 27.0192 58.0119 25.7929" stroke="#437457" stroke-linecap="round"/>
<path d="M33.4697 33.3128C33.4697 32.7407 33.4697 32.1686 33.4697 31.5965C33.4697 30.9342 33.2264 30.2785 33.1118 29.6222C32.8999 28.4085 32.6518 27.224 32.6518 25.9933C32.6518 25.1884 32.6689 24.5571 32.9585 23.8002C33.1279 23.3573 33.1607 22.7907 33.4697 22.4093C33.7519 22.0609 33.9285 21.5694 34.2081 21.1977C34.4532 20.8719 34.7697 20.5998 35.0032 20.2667C35.1462 20.0628 35.4105 19.8609 35.6166 19.5319C35.8865 19.1013 35.96 18.7757 35.3099 18.528C34.8611 18.3569 34.6513 18.135 34.4409 18.0232C34.0762 17.8292 33.7202 17.6053 33.322 17.4623C32.6665 17.2269 32.2783 16.3433 32.6518 15.7374C33.4938 14.3714 34.9548 14.0669 36.5094 13.9792C37.4835 13.9242 38.9162 13.6889 39.8426 13.3501C40.2382 13.2054 42.6228 12.8076 43.5457 13.9792C43.7731 14.268 43.7272 14.608 43.8467 14.9383C44.1739 15.843 42.9808 16.3858 42.37 16.8004C42.1753 16.9326 41.6486 17.3052 41.6486 17.5632C41.6486 17.6954 42.4895 17.7333 42.6483 17.7876C43.6325 18.124 45.227 18.8119 46.556 21.3211C46.7589 21.6718 46.848 22.1367 47.1467 22.4317C47.3205 22.6033 47.5032 22.8933 47.5784 23.116" stroke="#437457" stroke-linecap="round"/>
<path d="M33.5718 31.7985C34.5487 31.7985 35.5256 31.7985 36.5026 31.7985C37.1981 31.7985 38.1002 31.9453 38.7859 31.776C39.9079 31.499 40.798 30.5661 41.6712 29.8802C42.1395 29.5124 42.6087 29.1006 43.1025 28.7697C43.4886 28.511 44.0693 28.1091 44.5111 27.9845C45.0191 27.8411 45.7811 27.5156 46.1469 27.1544" stroke="#437457" stroke-linecap="round"/>
<path d="M35.7036 18.7034C37.0923 18.7034 37.2409 18.6621 38.5973 18.3709C39.4331 18.1915 41.23 17.7901 41.9305 17.3289" stroke="#437457" stroke-linecap="round"/>
<path d="M12.2046 32.8824C12.2046 32.3103 12.2046 32.2696 12.2046 31.6975C12.2046 30.9749 12.4325 30.5602 12.7158 29.9307C13.1138 29.0463 14.452 28.0748 15.3285 27.7601C15.8748 27.5639 16.5192 27.1852 17.112 27.1544C17.4995 27.1342 17.9296 27.0086 18.2877 26.8515C19.5375 26.303 20.2654 25.1947 21.4627 24.5799C23.1506 23.7132 24.9569 22.9476 26.9267 23.3965C27.5835 23.5461 28.3634 23.7953 28.9203 24.1761C29.7714 24.7579 30.1895 25.3746 30.7322 26.2345C32.1579 28.4937 33.3676 30.8056 33.3676 33.5148" stroke="#437457" stroke-linecap="round"/>
<path d="M18.7445 26.4079C18.6961 25.4278 18.1862 24.9175 17.5357 24.31C17.1647 23.9634 16.1438 23.5865 14.752 23.5865" stroke="#437457" stroke-linecap="round"/>
<ellipse cx="24.8334" cy="59.5452" rx="6.23333" ry="1.81041" fill="#ABBBA1"/>
<ellipse cx="22.2668" cy="54.4761" rx="3.66667" ry="1.81041" fill="#ABBBA1"/>
<ellipse cx="27.0334" cy="64.6144" rx="8.43333" ry="1.81041" fill="#ABBBA1"/>
<ellipse cx="39.8665" cy="64.6144" rx="2.2" ry="1.81041" fill="#ABBBA1"/>
</svg>
