<svg width="80" height="74" viewBox="0 0 80 74" fill="none" xmlns="http://www.w3.org/2000/svg">
<path d="M48.3122 29.6843C47.7717 27.5212 46.3381 24.0931 45.7862 22.5444C44.8226 19.8408 44.0104 17.0797 42.8986 14.4275C42.6627 13.8646 42.4006 13.2878 42.0164 12.8081C41.4945 12.1566 40.6268 11.9337 39.885 11.6697C38.8806 11.3123 37.6377 11.5751 37.0989 12.5321C36.3255 13.9058 36.3434 15.7944 36.2602 17.3494C36.1154 20.0575 36.1219 22.7772 36.5887 25.4765C36.673 25.9636 36.6814 26.4566 36.7798 26.9412C36.8964 27.5157 37.1116 28.0618 37.2313 28.6333C37.5029 29.9292 37.7047 31.172 37.8384 32.4841C37.9973 34.0442 37.9059 34.0286 38.2344 35.5606" stroke="#ABBBA1" stroke-linecap="round"/>
<path d="M38.7608 22.4734C38.334 21.734 38.3984 21.09 38.6036 20.4042C38.861 19.5433 39.3813 19.2846 40.0623 18.8999C40.6116 18.5896 41.771 18.5007 41.7616 17.6156C41.7555 17.0444 41.6195 16.5658 41.3949 16.0026C41.3424 15.8709 41.14 15.6097 41.2001 15.5" stroke="#ABBBA1" stroke-linecap="round"/>
<path d="M38.6725 26.52C38.4221 26.0861 38.7802 25.5732 39.1753 25.1512C39.6761 24.6163 40.5589 24.4267 41.1788 24.0766C41.6659 23.8014 42.101 23.5928 42.2319 23.0757C42.3742 22.5132 42.2119 21.8833 42.1556 21.3551" stroke="#ABBBA1" stroke-linecap="round"/>
<path d="M40.4987 31.084C40.248 30.4987 41.3067 29.6588 41.7863 29.3501C42.142 29.1211 42.4774 28.8546 42.8751 28.6898C43.178 28.5642 43.5353 28.4369 43.6937 28.1402C44.0664 27.4422 44.1108 26.6077 43.9818 25.919" stroke="#ABBBA1" stroke-linecap="round"/>
<path d="M32.9087 37.7696C32.7209 37.4443 32.5332 37.1191 32.3454 36.7938C32.1281 36.4172 31.7851 36.1167 31.5095 35.7776C30.9998 35.1505 30.4807 34.5507 30.0768 33.851C29.8127 33.3934 29.6146 33.0294 29.5184 32.5131C29.4621 32.211 29.2933 31.8791 29.3306 31.5705C29.3646 31.2887 29.2961 30.9568 29.3211 30.6625C29.343 30.4045 29.4201 30.1558 29.4335 29.8971C29.4417 29.7387 29.5144 29.5454 29.5148 29.2972C29.5153 28.9723 29.4471 28.7654 29.0241 28.8175C28.7321 28.8535 28.549 28.7896 28.4017 28.7885C28.1464 28.7865 27.8858 28.7649 27.6296 28.8018C27.2078 28.8626 26.7138 28.4755 26.7113 28.0201C26.7056 26.9935 27.3736 26.3867 28.1618 25.8753C28.6557 25.5548 29.3315 24.9957 29.7072 24.528C29.8677 24.3283 30.9904 23.3941 31.8599 23.7863C32.0742 23.8829 32.1617 24.0898 32.3329 24.2422C32.8018 24.6594 32.3528 25.3222 32.1678 25.7393C32.1089 25.8722 31.9543 26.2404 32.039 26.3871C32.0824 26.4623 32.5368 26.2342 32.638 26.2179C33.2657 26.117 34.3295 26.0347 35.8514 27.0667C36.0731 27.2058 36.2725 27.4437 36.5263 27.5227C36.674 27.5687 36.8651 27.6793 36.9777 27.7836" stroke="#ABBBA1" stroke-linecap="round"/>
<path d="M31.6889 36.8198C32.2569 36.4989 32.825 36.178 33.3931 35.8571C33.7976 35.6286 34.3656 35.4076 34.7142 35.0956C35.2846 34.585 35.5262 33.8144 35.8309 33.1759C35.9944 32.8334 36.1454 32.4683 36.3346 32.1364C36.4826 31.8769 36.7013 31.4802 36.9213 31.2711C37.1743 31.0308 37.5211 30.6135 37.6269 30.3082" stroke="#ABBBA1" stroke-linecap="round"/>
<path d="M28.7497 28.9278C29.5651 28.4672 29.6419 28.3998 30.3645 27.8222C30.8099 27.4663 31.7633 26.6943 32.0579 26.2597" stroke="#ABBBA1" stroke-linecap="round"/>
<path d="M19.293 42.6661C19.222 42.0165 19.6629 41.0099 20.0608 40.5397C20.3088 40.2467 20.5513 39.8143 20.8822 39.6033C21.0986 39.4654 21.3036 39.2517 21.4565 39.0428C21.99 38.3137 22.033 37.4251 22.5138 36.6741C23.1916 35.6153 23.972 34.5775 25.2587 34.2007C25.6877 34.0751 26.2214 33.9679 26.6714 34.0107C27.359 34.076 27.809 34.3026 28.4134 34.6318C30.0013 35.4966 31.4827 36.4626 32.4023 38.0558" stroke="#ABBBA1" stroke-linecap="round"/>
<path d="M22.0452 38.3108C21.653 37.6992 21.153 37.548 20.5311 37.3829C20.1764 37.2886 19.4137 37.3991 18.564 37.8792" stroke="#ABBBA1" stroke-linecap="round"/>
<path d="M11.2509 49.5219C12.3034 51.2573 12.1695 51.3029 12.6543 52.6457C13.0347 53.6995 13.1279 55.6828 13.356 56.8107C13.6983 58.504 13.7068 59.9503 13.7068 61.6699C13.7068 63.2146 13.7068 65.1408 13.7068 67.2233C13.7068 69.3058 14.4009 69.6206 15.1102 69.953C17.3012 69.953 40.6387 70 42.8273 70M42.8273 70C45.707 70 39.9766 70 42.8273 70ZM42.8273 70C43.4601 70 44.5816 69.4045 44.5816 68.6117C44.9324 67.2233 44.8909 67.0454 44.8909 66.1167C44.8909 65.4158 45.193 64.5343 45.5249 63.9141C45.832 63.3403 46.5091 62.5965 47.0375 62.3641C48.5481 61.6999 55.1071 63.0583 57.6304 61.6532C58.1774 61.3486 59.111 60.8326 59.3173 60.2816C59.5505 59.6585 59.5821 58.8289 59.621 58.1378C59.7766 55.3669 59.6681 56.4975 59.6681 53.6869C59.6681 53.5134 59.3173 49.869 60.1813 48.8461C60.5148 48.5162 61.9249 47.9937 62.4749 47.7865C62.8831 47.6326 64.2948 47.5437 64.58 47.0923C64.9335 46.5329 65.1063 46.3981 64.9309 45.3569M64.9309 45.3569C64.9309 44.963 64.9309 45.7507 64.9309 45.3569ZM64.9309 45.3569C64.58 43.2743 62.1241 41.886 60.7207 40.1506C60.1593 39.4564 59.1936 38.4312 58.9664 37.7209" stroke="#437457" stroke-linecap="round"/>
<path d="M58.9662 37.721C58.9662 37.3739 58.7503 36.9615 58.7503 36.2357C58.7503 35.3454 59.0572 34.7144 59.3191 33.8722C59.9374 31.8842 59.6679 24.1846 55.8085 18.2841C54.574 16.3966 53.0063 14.7607 51.2475 12.7308C49.1424 10.3012 44.5813 6.94119 42.7656 6.30381C40.7191 5.58542 38.564 4.84821 36.4008 4.55304C34.4051 4.28072 33.3483 4.23236 30.5473 4.05359C19.671 3.35942 11.2506 9.60691 9.49634 11.3423" stroke="#437457" stroke-linecap="round"/>
<path d="M9.4965 11.3424C4.93545 15.8545 3.77593 19.6042 3.06001 21.3355C1.45541 25.2157 2.08606 29.7571 2.32051 33.8159C2.41127 35.3873 3.19511 37.0083 3.68574 38.493C4.34021 40.4734 5.37482 42.4064 6.36566 44.2268C6.96437 45.3268 7.90232 46.1784 9.14565 47.0923C10.0074 47.7257 10.6263 48.7968 11.2508 49.5219" stroke="#437457" stroke-linecap="round"/>
<path d="M12.3032 18.6312C12.3032 18.239 13.0049 11.3424 20.3728 13.4249" stroke="#437457" stroke-linecap="round"/>
<path d="M20.4105 13.1853C20.4105 12.6886 22.4779 9.95402 25.2847 11.6895" stroke="#437457" stroke-linecap="round"/>
<path d="M25.2848 11.6895C25.7749 11.2047 28.0916 8.56576 31.6001 11.3424" stroke="#437457" stroke-linecap="round"/>
<path d="M31.6001 11.3423C32.1785 11.3423 35.3308 9.20627 37.085 12.33" stroke="#437457" stroke-linecap="round"/>
<path d="M43.4003 15.4539C43.6793 15.4539 47.7391 15.8545 47.3883 17.937" stroke="#437457" stroke-linecap="round"/>
<path d="M48.4409 27.6554C54.7562 25.2258 49.1426 18.6311 47.3883 17.937" stroke="#437457" stroke-linecap="round"/>
<path d="M16.1626 39.4563C11.6016 41.1918 10.3291 37.0684 10.549 34.9442" stroke="#437457" stroke-linecap="round"/>
<path d="M10.5492 34.9442C4.93562 30.4321 10.1277 24.0793 10.3335 23.7026" stroke="#437457" stroke-linecap="round"/>
<path d="M12.3033 18.6312C9.14577 19.3254 9.98959 23.0213 10.1982 23.4904" stroke="#437457" stroke-linecap="round"/>
<path d="M28.7933 44.6627C28.668 44.9152 28.1963 46.408 28.0484 46.6489C27.9937 46.7381 27.9737 46.9252 27.8967 46.9937C27.8537 47.032 27.7493 47.0288 27.6967 47.0288C27.4305 47.0288 27.1684 47.0448 26.9029 47.056C26.6147 47.0681 26.3138 47.1437 26.03 47.1437C25.9362 47.1437 25.9285 47.0758 25.8929 46.9937C25.7655 46.6995 25.6793 46.3915 25.5525 46.0967C25.3636 45.6577 24.9339 42.8287 24.4473 42.9077C17.9168 43.9685 16.1627 40.8447 16.3044 39.4564" stroke="#437457" stroke-linecap="round"/>
<path d="M48.4411 27.6555C49.4936 31.1263 44.5817 31.4734 42.8275 32.5147C40.3715 33.903 37.3506 37.6288 33.3545 38.0681C30.1969 38.4151 28.9482 44.2654 28.7932 44.6627M28.7932 44.6627C28.5249 45.3504 29.0935 43.9874 28.7932 44.6627Z" stroke="#437457" stroke-linecap="round"/>
</svg>
