<svg width="125" height="126" viewBox="0 0 125 126" fill="none" xmlns="http://www.w3.org/2000/svg">
<path d="M9.10517 71.3355C9.10517 74.5007 7.029 77.636 5.62027 80.4551C4.11846 83.4604 2.45005 86.6242 1.86729 89.977C1.2353 93.6131 1.06309 97.1403 1.06309 100.84C1.06309 102.767 0.825811 104.858 1.27158 106.741C1.71042 108.595 2.45391 110.498 2.6864 112.359C2.94089 114.396 4.28377 116.971 5.20327 118.811C6.14993 120.705 7.58654 121.936 9.10517 123.371C12.2444 126.337 16.2089 124.388 19.8279 124.175C20.7415 124.122 22.5615 123.297 23.3128 122.775C24.7122 121.802 26.3733 121.345 27.8105 120.42C30.5955 118.629 33.5571 116.567 35.793 114.117C37.9252 111.78 40.7757 110.201 42.8968 107.814C44.3542 106.173 46.4746 104.921 48.1837 103.522C49.6785 102.299 51.0017 100.899 52.5324 99.7075C54.1263 98.4671 55.718 97.2709 57.0747 95.7438C62.5821 89.5444 69.233 84.0668 75.4672 78.5775C80.0927 74.5048 84.9517 70.4456 88.7813 65.5836C91.3028 62.3826 94.0092 59.1114 96.0192 55.57C98.0596 51.9751 101.226 49.5954 104.002 46.6441C107.045 43.4083 110.641 38.2466 114.397 35.6548" stroke="#437457" stroke-linecap="round"/>
<path d="M114.398 35.6546C115.256 34.796 115.956 33.9176 116.586 33.1287C117.787 31.6266 118.841 30.1364 119.818 28.4795C121.038 26.4111 122.589 24.4386 123.303 22.1167C124.379 18.6169 124.36 13.2968 122.171 10.1808C120.837 8.28102 119.883 6.69626 117.942 5.29316C115.677 3.65652 112.922 2.87404 110.302 1.99998C107.544 1.08014 104.62 0.861398 101.723 1.0761C98.6937 1.30066 95.554 3.654 92.8027 4.81632C91.6918 5.28562 90.6681 6.05236 89.5412 6.55977C88.4863 7.03471 87.3347 7.28236 86.3094 7.76677C84.6258 8.56228 82.769 8.30322 80.9332 8.30322C79.4637 8.30322 77.9943 8.30322 76.5249 8.30322C75.4308 8.30322 74.4815 8.78188 73.4421 8.83966C71.5371 8.94556 68.2486 10.0128 66.8744 11.3878C64.8192 13.4442 58.1681 18.9692 60.7088 17.5569C62.4499 16.5891 65.3265 16.8453 67.2616 16.6032C69.0682 16.3773 71.3419 16.0021 73.174 16.4095C75.3967 16.9037 78.0153 17.2149 79.9353 18.4957C81.6478 19.638 83.8018 20.5754 85.6393 21.5653C86.9495 22.2713 87.9494 22.8086 88.871 23.9942C89.6113 24.9467 89.5263 25.6041 89.5263 26.8106C89.5263 31.5071 80.2583 27.4173 77.7312 27.347C71.7322 27.1803 66.2542 24.2116 60.5599 22.7872C59.0083 22.3991 57.6387 21.9826 56.0176 21.9826C54.5663 21.9826 53.4535 23.0779 52.3242 23.8601C50.9317 24.8247 50.2368 25.2012 48.5712 25.2012C47.3946 25.2012 46.2949 25.2322 45.1608 25.4844C43.4583 25.8629 42.0599 27.4817 40.6781 28.4199C39.1866 29.4326 37.6824 30.7555 36.5677 32.175C35.3362 33.7433 34.0721 35.2897 32.8445 36.8689C32.0872 37.8432 30.9595 41.3031 31.8318 40.4303C32.5689 39.6928 32.9535 38.7056 34.0359 38.1355C35.3999 37.4173 37.169 36.7348 38.7271 36.7348C41.0488 36.7348 43.441 36.4666 45.8012 36.4666C47.7547 36.4666 50.1013 36.1162 51.9966 36.5262C54.5898 37.0872 56.9961 38.1473 59.4429 39.1488C60.5482 39.6013 61.2704 40.2696 62.2279 40.8923C63.2996 41.5893 64.6371 42.1405 65.549 43.053C67.5803 45.0855 73.5037 51.9238 67.485 52.5004C60.9881 53.1228 54.8829 50.0274 48.6457 48.6707C46.0494 48.106 43.3386 47.9185 40.7525 47.3147C39.4488 47.0104 38.1652 46.4131 36.806 46.3908C35.1739 46.3641 33.483 46.2679 31.8914 45.914C29.9153 45.4746 27.7486 45.5862 25.7258 45.5862C24.2552 45.5862 22.5711 47.2626 21.6452 48.3876C19.3033 51.233 16.454 53.5029 14.3477 56.5684C12.7096 58.9525 10.4458 61.2849 10.4458 64.3618C10.4458 64.7542 10.4458 65.9314 10.4458 65.539C10.4458 64.6546 12.0719 64.5167 12.7095 64.3618C14.99 63.8076 17.2553 63.5302 19.5602 63.274C22.7653 62.9176 25.7262 62.216 28.9426 62.216C30.9782 62.216 32.8733 62.6081 34.8401 63.1548C38.4588 64.1605 40.9029 65.5431 42.1376 69.2494C42.3941 70.0196 43.1975 72.0456 42.2865 72.6767C40.2704 74.0732 35.7988 73.2131 33.4998 73.2131C28.1167 73.2131 22.8085 72.1402 17.4156 72.1402C14.8642 72.1402 12.356 72.0601 9.82031 71.8571" stroke="#437457" stroke-linecap="round"/>
<path d="M10.282 69.641C14.1583 69.641 18.0573 69.5032 21.923 69.8168C23.9806 69.9837 26.0506 70.0339 28.1028 70.2482C30.5786 70.5066 32.8786 71.5497 35.2887 72.0856" stroke="#ABBBA1" stroke-linecap="round"/>
<path d="M12.5811 67.3401C16.512 67.3401 20.4429 67.3401 24.3738 67.3401C27.4422 67.3401 30.4975 67.3989 33.5397 67.8514C36.2423 68.2533 38.4559 69.1508 40.7495 70.6475" stroke="#ABBBA1" stroke-linecap="round"/>
<path d="M25.3721 65.0394C28.0432 65.0394 30.7383 64.931 33.4042 65.1113C34.878 65.2109 36.464 65.3441 37.7317 66.1898" stroke="#ABBBA1" stroke-linecap="round"/>
<path d="M46.2109 45.7703C49.3951 45.7703 52.492 45.9055 55.2651 47.6396" stroke="#ABBBA1" stroke-linecap="round"/>
<path d="M60.2952 44.3325C60.6877 44.507 60.9777 44.5332 60.3112 44.4443C57.6743 44.0925 55.102 43.1955 52.5185 42.5909C49.0022 41.7681 45.5031 41.2102 41.8835 41.1689C40.3571 41.1515 39.1255 41.1339 37.7317 41.7441" stroke="#ABBBA1" stroke-linecap="round"/>
<path d="M55.84 40.8811C52.5993 40.8811 49.1605 40.9723 46.0354 40.0183C41.9717 38.7778 37.8067 37.947 33.564 37.7175" stroke="#ABBBA1" stroke-linecap="round"/>
<path d="M80.2718 26.9329C79.7297 26.8836 79.1925 26.5398 78.7069 26.3257C76.8797 25.5203 75.075 24.666 73.2456 23.8652C69.7175 22.3207 66.2979 21.0574 62.4509 20.7495" stroke="#ABBBA1" stroke-linecap="round"/>
<path d="M82.7149 26.2139C81.6842 26.2139 80.5375 25.9024 79.5531 25.6307C77.1149 24.9577 74.602 24.291 72.2874 23.266C70.3537 22.4096 68.5187 21.4523 66.6506 20.4619C64.3339 19.2337 61.889 18.7164 59.2891 18.5925" stroke="#ABBBA1" stroke-linecap="round"/>
<path d="M84.4398 22.4749C83.6952 22.4749 82.8743 21.8141 82.2521 21.4683C80.338 20.4043 78.6519 18.9762 76.7509 17.8893C72.9395 15.7101 68.2873 15.4686 64.032 15.1411" stroke="#ABBBA1" stroke-linecap="round"/>
<path d="M80.5594 22.0435C78.1992 21.9336 76.1071 20.9469 73.8127 20.5495C71.854 20.2103 69.8756 19.9455 67.9124 19.5989" stroke="#ABBBA1" stroke-linecap="round"/>
</svg>
