<svg width="165" height="114" viewBox="0 0 165 114" fill="none" xmlns="http://www.w3.org/2000/svg">
<path d="M3.50537 53.6596C5.25034 52.3544 9.15425 48.6653 10.6888 47.1612C13.0099 44.8861 16.0221 43.0264 18.7307 41.2564C22.5663 38.75 25.876 35.7706 29.8855 33.4022C34.9258 30.4249 40.4724 28.282 45.1334 24.7287C47.9995 22.5437 51.1433 20.842 54.0688 18.7392C57.5048 16.2694 61.6161 13.5182 65.7569 12.2694C69.3621 11.182 72.3805 7.99588 75.485 6.03967C76.8785 5.16163 78.4815 4.51498 79.7509 3.49695C80.4715 2.91913 82.3816 1 83.2906 1" stroke="#437457" stroke-linecap="round"/>
<path d="M3.6272 53.7157C7.79967 53.7157 12.0282 52.2526 16.0647 51.3001C21.2602 50.0742 26.2867 48.3736 31.4135 46.9916C38.7611 45.0111 46.5835 44.7663 53.8241 42.4006C55.2221 41.9438 56.6981 41.8362 58.1044 41.3976C61.1136 40.4592 64.3748 39.6224 67.4866 39.1233C70.3732 38.6603 73.2983 38.0298 76.1338 37.3152C81.3501 36.0004 86.7183 35.2358 91.9726 34.0096C94.9188 33.322 97.8168 32.1694 100.822 31.7918C105.041 31.2616 108.916 29.1692 113.245 29.0513C116.071 28.9744 119.065 28.4131 121.863 27.9777C125.182 27.4613 128.811 27.1915 132.038 26.2543C137.929 24.5433 144.349 24.4989 150.197 22.6945C154.526 21.3585 156.508 20.2561 161.072 20.2561" stroke="#437457" stroke-linecap="round"/>
<path d="M161.611 20.1517C156.246 20.1517 150.901 18.442 145.844 16.7897C144.324 16.2929 142.577 15.8947 141.117 15.1793C139.804 14.5359 138.356 13.7138 137.485 15.2075C134.476 20.3692 121.142 20.3179 121.142 13.0886C121.142 12.3698 121.51 12.1361 121.92 11.6336C120.316 11.0892 113.424 7.69235 111.673 7.69235C109.496 7.69235 107.328 6.75791 105.188 6.43512C102.72 6.06299 100.23 5.40423 97.7944 4.83885C95.6733 4.34644 93.5374 3.50615 91.4243 3.12958C89.2524 2.74251 85.4132 1.61647 83.2905 1" stroke="#437457" stroke-linecap="round"/>
<path d="M68.4808 23.2029C66.2369 23.2029 62.3499 23.752 61.2316 26.127C60.7214 27.2105 59.1204 30.8819 60.6983 31.7916C64.1514 33.7826 69.7353 33.0231 73.5538 32.3426C75.4599 32.0029 77.4852 31.4924 78.8574 30.0682C79.9639 28.9198 79.9615 26.8309 78.353 26.1411C74.9291 24.6729 70.5979 23.2029 66.9243 23.2029" stroke="#ABBBA1" stroke-linecap="round"/>
<path d="M82.0281 14.3037C84.0653 9.81092 89.3702 9.98107 93.6441 9.98107C95.425 9.98107 95.4321 10.8649 97.1463 11.2383C98.6193 11.5592 101.318 13.3789 101.672 14.9394C102.056 16.6335 100.984 18.3721 99.0919 18.3721C96.773 18.3721 93.7903 18.8498 91.5688 18.2449C89.58 17.7034 80.1482 18.4496 82.0281 14.3037Z" stroke="#ABBBA1" stroke-linecap="round"/>
<path d="M1.50097 60.3406C1.50097 63.5852 1.03296 67.0222 1.03296 70.2437C1.03296 71.6845 1.03296 73.1254 1.03296 74.5663C1.03296 75.7608 0.703423 76.6005 2.12827 76.6005C8.31679 78.8108 9.51959 82.063 9.51959 86.2774C9.51959 87.5199 9.51959 91.7792 7.64806 94.0181C6.65808 94.9885 4.33577 96.6106 3.10469 97.2809C1.3545 98.234 1.29238 99.7514 1.29238 101.773C1.29238 103.008 1.34799 111.801 1.50097 113" stroke="#437457" stroke-linecap="round"/>
<path d="M1.81079 112.961C4.20482 112.961 6.75137 111.387 8.94472 110.546C10.6701 109.884 12.4165 109.317 14.1474 108.752C17.6685 107.601 21.2768 106.903 24.8988 106.039C29.719 104.89 34.6989 104.107 39.4116 102.663C40.7288 102.26 42.058 102.028 43.4326 102.028C45.2874 102.028 45.1332 101.838 45.1332 99.9934C45.1332 98.4924 45.3395 96.5506 45.9691 95.1622C46.7224 93.5009 48.4601 92.1555 49.745 90.8961C52.3007 88.391 57.0575 88.2969 60.4243 88.2969C63.923 88.2969 67.4972 91.2698 69.7776 93.6366C70.0949 93.9658 71.2627 95.7089 71.6636 96.1018" stroke="#437457" stroke-linecap="round"/>
<path d="M71.6638 96.1017C72.4657 95.7087 74.8691 94.9748 75.485 94.7807C77.679 94.0895 80.0251 93.4138 82.1433 92.5629C90.476 89.2156 99.78 88.5202 108.431 86.1355C110.856 85.4668 113.273 84.978 115.694 84.2284C118.306 83.4199 121.106 83.0324 123.823 82.7593C125.95 82.5454 128.055 82.1622 130.178 81.9541C131.446 81.8299 131.838 81.58 132.427 80.5415C134.04 77.6947 136.331 74.945 139.822 74.1846C142.691 73.5598 145.913 73.1521 148.381 75.3289C148.98 75.858 150.055 76.4139 150.845 76.5861C151.369 76.7001 153.048 76.8214 153.454 76.5861C154.387 76.0456 156.433 75.6655 157.463 75.3289C160.205 74.4329 161.022 74.8807 163.878 74.8807" stroke="#437457" stroke-linecap="round"/>
<path d="M163.878 74.8807C163.878 66.8589 164.373 56.6093 163.369 48.6303C162.881 44.748 163.167 40.7192 163.167 36.8067C163.167 32.4325 163.477 28.1146 163.477 23.793" stroke="#437457" stroke-linecap="round"/>
<path d="M1.50098 60.3403C6.15544 60.3403 10.9819 58.6512 15.5601 57.9253C21.0661 57.0523 26.4896 55.7807 31.8456 54.2807C38.6481 52.3757 45.0462 49.9763 52.1377 49.1953C54.6863 48.9146 57.286 48.5282 59.7904 47.9946C61.0697 47.722 62.4731 46.9433 63.7537 46.8503C66.3347 46.6629 69.2183 45.8201 71.7235 45.1834C73.7568 44.6667 75.7882 44.3534 77.8198 43.8556C82.5593 42.6942 87.3438 41.7037 92.0876 40.4935C94.9264 39.7693 97.8671 38.6593 100.764 38.2051C103.652 37.7521 106.659 37.2693 109.526 36.6794C114.378 35.6814 119.331 35.0287 124.14 33.8683C130.837 32.2524 137.502 30.4602 144.23 28.9948C148.974 27.9614 153.077 26.2292 157.864 25.3649C159.583 25.0545 163.477 23.793 163.477 23.793" stroke="#437457" stroke-linecap="round"/>
<path d="M71.2633 61.9122C72.3211 59.3473 72.1937 57.1964 75.0963 54.3514C76.5256 52.9504 79.3581 52.0824 81.2358 51.4131C86.4456 49.5562 90.8725 50.6372 95.5181 53.5179C99.6174 56.06 101.168 59.0464 101.168 63.6464C101.168 67.1796 101.854 71.5525 98.2563 73.7467C96.307 74.9356 93.6789 75.4885 91.4539 75.8374C89.543 76.1371 87.7595 77.1423 85.862 77.3489C84.0693 77.5442 82.0924 77.4479 80.3567 77.0523C79.4954 76.8559 78.8538 76.3441 78.0794 75.9645C70.0602 73.7467 70.5943 63.5343 71.2633 61.9122Z" stroke="#ABBBA1" stroke-linecap="round"/>
</svg>
