<svg width="80" height="74" viewBox="0 0 80 74" fill="none" xmlns="http://www.w3.org/2000/svg">
<path d="M53.5366 22.0333H62.8618C66.7122 23.2276 69.2791 26.512 70.0813 28.0049C74.413 32.3044 76.4986 37.1613 77 39.0523V54.8771C76.278 57.7434 74.0921 58.46 73.0894 58.46H69.7805C67.9756 63.5359 65.8699 66.5217 59.5528 65.9245C54.4992 65.4468 52.4336 60.351 52.0325 57.8629C50.8293 57.624 50.5284 56.569 50.5284 56.0714V25.3177C50.5284 22.4513 52.5339 21.9338 53.5366 22.0333Z" stroke="#437457"/>
<path d="M63.8656 29.2433H67.4962C67.9757 29.2433 68.4 29.2433 68.6697 30.0951C68.8191 30.5669 69.0807 30.963 69.3299 31.391C69.5583 31.7834 69.7066 32.2229 69.9423 32.6177C70.1461 32.959 70.4457 33.285 70.7014 33.5896C71.5662 34.6197 72.5068 35.5965 73.2392 36.7273C73.7983 37.5906 74.2373 38.4584 74.4127 39.4647C74.4506 39.6817 74.857 40.7096 74.4788 40.7096C73.852 40.7096 73.245 40.7489 72.6378 40.9061C71.1799 41.2836 69.6611 41.4958 68.1563 41.4958C66.0584 41.4958 63.9773 41.0756 61.8852 41.0372C61.24 41.0253 60.6025 40.9204 59.9562 40.9061C59.4902 40.8959 58.9757 40.8221 58.5223 40.7096C58.0496 40.5923 57.6908 40.15 57.3671 39.8287C57.1477 39.6109 56.8485 39.4434 56.6703 39.188C56.5346 38.9935 56.5004 38.7763 56.3769 38.5838C55.9947 37.9876 56.0102 37.102 56.0102 36.4179C56.0102 35.2642 56.2083 34.1271 56.2083 32.9781C56.2083 32.2363 56.316 30.9874 56.9711 30.4555C57.4621 30.0567 58.0184 29.6365 58.68 29.6365C59.2668 29.6365 59.96 29.7367 60.5357 29.6328C61.6123 29.4385 62.7582 29.2433 63.8656 29.2433Z" fill="#ABBBA1"/>
<path d="M6.00806 32.4836L6.00806 53.9813C6.00806 56.2899 6.60968 58.1614 13.2276 58.1614M31.782 14.5688H44.5121C46.838 14.5688 48.7235 16.4403 48.7235 18.7489V53.9813C48.7235 56.2899 50.8292 58.1614 30.6747 58.1614" stroke="#437457"/>
<path d="M19.1952 13.652C19.1952 15.4278 19.1456 17.1961 19.1456 18.9689C19.1456 19.8325 19.1952 20.6883 19.1952 21.5507C19.1952 22.1821 19.2448 22.8124 19.2448 23.4488C19.2448 23.7205 19.2692 23.8335 19.1153 24.045C18.9315 24.2977 18.7209 24.5269 18.5229 24.7671C18.3998 24.9165 18.3159 25.0888 18.2005 25.2429C18.0857 25.3964 17.9205 25.5145 17.8175 25.6751C17.6354 25.9591 17.3962 26.198 17.2223 26.4901C17.0659 26.7529 16.4559 27.4879 16.2359 27.7063C15.5598 28.3773 15.3137 28.6126 14.781 29.4056" stroke="#ABBBA1" stroke-linecap="round"/>
<ellipse cx="19.2439" cy="22.929" rx="2.4065" ry="2.38864" fill="#ABBBA1"/>
<path d="M18.9429 52.4884C19.9712 51.9497 21.0486 50.9955 22.95 51.3201C23.6082 51.5067 24.6984 51.8182 25.26 52.1898C25.9489 52.6457 26.5816 53.3171 27.0649 53.9813C27.4991 54.578 27.5901 55.1246 27.7729 55.8506C27.977 56.661 28.0614 57.641 27.9421 58.2908C27.7729 59.213 27.2071 59.866 26.764 60.55C26.1345 61.5221 24.9818 62.2959 23.7559 62.574C22.9938 62.7469 21.3494 62.6401 20.447 62.3415C18.0405 61.4458 17.0228 59.6935 16.8372 59.0571C16.09 56.4951 16.9083 55.1589 17.1587 54.5908C17.5098 53.7943 18.1228 52.918 18.9429 52.4884Z" stroke="#437457" stroke-linecap="round"/>
<path d="M57.7545 52.4884C58.7828 51.9497 59.8602 50.9955 61.7616 51.3201C62.4199 51.5067 63.51 51.8182 64.0716 52.1898C64.7605 52.6457 65.3932 53.3171 65.8765 53.9813C66.3107 54.578 66.4017 55.1246 66.5846 55.8506C66.7887 56.661 66.873 57.641 66.7538 58.2908C66.5846 59.213 66.0187 59.866 65.5757 60.55C64.9461 61.5221 63.7934 62.2959 62.5676 62.574C61.8055 62.7469 60.1611 62.6401 59.2586 62.3415C56.8521 61.4458 55.8344 59.6935 55.6488 59.0571C54.9016 56.4951 55.7199 55.1589 55.9703 54.5908C56.3214 53.7943 56.9344 52.918 57.7545 52.4884Z" stroke="#437457" stroke-linecap="round"/>
<path d="M16.8991 51.0136C18.4636 50.2238 20.1029 48.8245 22.9959 49.3004C23.9974 49.5742 25.656 50.0309 26.5105 50.5758C27.5587 51.2443 28.5213 52.2288 29.2567 53.2028C29.9173 54.0778 30.0558 54.8793 30.334 55.9438C30.6445 57.1321 30.7729 58.5691 30.5915 59.5221C30.334 60.8743 29.4731 61.8318 28.799 62.8349C27.8411 64.2603 26.0873 65.395 24.2221 65.8028C23.0626 66.0563 20.5606 65.8997 19.1875 65.4618C15.526 64.1484 13.9777 61.579 13.6953 60.6458C12.5584 56.8889 13.8034 54.9296 14.1844 54.0965C14.7186 52.9285 15.6513 51.6436 16.8991 51.0136Z" stroke="#437457" stroke-linecap="round"/>
<path d="M9.7101 11.2961C12.5693 9.85748 15.5653 7.30873 20.8525 8.1757C22.6828 8.67429 25.7142 9.50612 27.2758 10.4987C29.1915 11.7162 30.9507 13.5095 32.2946 15.2835C33.502 16.8773 33.7551 18.3372 34.2635 20.2761C34.8311 22.4406 35.0657 25.058 34.7341 26.7936C34.2635 29.2567 32.6901 31.0007 31.4582 32.8278C29.7075 35.424 26.5023 37.4908 23.0935 38.2336C20.9744 38.6954 16.4018 38.41 13.8924 37.6125C7.20071 35.2201 4.3709 30.5402 3.8548 28.8404C1.77707 21.9975 4.05244 18.4287 4.74872 16.9114C5.72499 14.784 7.42959 12.4436 9.7101 11.2961Z" stroke="#437457" stroke-linecap="round"/>
</svg>
