<svg width="114" height="43" viewBox="0 0 114 43" fill="none" xmlns="http://www.w3.org/2000/svg">
<path d="M82.3308 16.7972H75.8241V27.1516H74.658V15.6797H83.4927V27.1516H82.3308V16.7972Z" fill="#314E49"/>
<path d="M95.3991 21.4113C95.3991 25.8096 92.6147 27.3759 90.012 27.3759C86.7376 27.3759 84.625 25.0349 84.625 21.4113C84.625 19.5657 85.1743 18.0248 86.2179 16.958C87.1727 15.9844 88.5206 15.4468 90.012 15.4468C93.2865 15.4468 95.3991 17.7285 95.3991 21.4113ZM94.2371 21.4113C94.2371 17.8385 92.0866 16.6067 90.012 16.6067C87.9375 16.6067 85.7869 17.9698 85.7869 21.4113C85.7869 24.9587 87.9375 26.2117 90.012 26.2117C92.657 26.2117 94.2371 24.4846 94.2371 21.4113Z" fill="#314E49"/>
<path d="M98.382 16.7889V17.4409C98.382 19.8792 98.3694 21.7756 98.0863 24.0446C97.7905 26.5379 97.237 27.1475 95.002 27.1475C95.002 27.1475 95.002 26.2543 95.002 26.0427C96.7005 26.0427 96.8145 25.903 97.0976 23.3377C97.2117 22.3471 97.3384 20.7724 97.3384 18.8717V15.6841H104.031V27.1518H102.911V16.7889H98.382Z" fill="#314E49"/>
<path d="M106.752 20.4378H112.24V21.5553L106.752 21.5342V26.034H113.28V27.1516H105.594V15.6797H113.28V16.7972H106.752V20.4378Z" fill="#314E49"/>
<path d="M1.17036 17.0172V27.1472H0V15.6753H1.85905L5.65744 25.5047L9.43469 15.6753H11.3106V27.1472H10.1403V17.0172L6.18558 27.1472H5.13352L1.17036 17.0172Z" fill="#314E49"/>
<path d="M14.4669 23.8453L13.3007 27.1472H12.0754L16.3555 15.6753H17.6484L21.9284 27.1472H20.6905L19.5159 23.8496H14.4669V23.8453ZM14.8725 22.732H19.1187L17.0019 16.7548L14.8725 22.732Z" fill="#314E49"/>
<path d="M31.0884 19.0618C31.0884 20.717 29.804 22.3891 27.345 22.3891H23.8804V27.1514H22.6931V15.6795L27.3407 15.6753C29.7744 15.6753 31.0884 17.4194 31.0884 19.0618ZM29.935 19.0618C29.935 17.6014 28.6717 16.8437 27.5689 16.8437H23.8804V21.225H27.5689C28.6801 21.225 29.935 20.5138 29.935 19.0618Z" fill="#314E49"/>
<path d="M38.9768 15.6753H40.5443L36.3065 20.3064L41.0682 27.1472H39.6612L35.5164 21.1742L33.1757 23.7395V27.1472H32.0222V15.6753H33.1799L33.1757 22.0208L38.9768 15.6753Z" fill="#314E49"/>
<path d="M43.7723 23.8453L42.6062 27.1472H41.3851L45.6652 15.6753H46.9581L51.2381 27.1472H50.0002L48.8256 23.8496H43.7723V23.8453ZM44.1822 22.732H48.4284L46.3116 16.7548L44.1822 22.732Z" fill="#314E49"/>
<path d="M51.086 2.53132C50.7606 2.42973 50.4057 2.59059 50.2705 2.90384C50.1522 3.17477 47.389 9.65576 50.2409 15.0234C51.9521 18.2491 55.3068 20.3403 60.2038 21.242C60.5037 21.297 60.7995 21.1446 60.9305 20.8694C60.9558 20.8187 61.0995 20.5096 61.2854 19.9974C61.898 18.283 62.9332 14.3207 61.2136 10.3585C59.6545 6.7772 56.2448 4.13993 51.086 2.53132ZM59.9756 10.8876C61.4459 14.2572 60.622 17.7411 60.077 19.3582C58.8221 17.83 55.7125 13.7281 54.9477 9.74043C54.8759 9.37637 54.5252 9.13508 54.1618 9.20704C53.7985 9.27901 53.5576 9.63036 53.6295 9.99442C54.3477 13.7535 56.887 17.4702 58.4208 19.4429C55.0491 18.4777 52.7042 16.7844 51.4324 14.3969C49.3368 10.4601 50.7141 5.63848 51.2888 4.0087C55.7125 5.50725 58.6362 7.81856 59.9756 10.8876Z" fill="#314E49"/>
<path d="M76.2592 32.4515C76.555 32.1848 76.6057 31.7361 76.3733 31.4102C76.1705 31.1265 71.3412 24.4847 64.2641 24.1418C60.0137 23.9344 55.9195 26.0552 52.0958 30.4365C51.8634 30.7032 51.8381 31.0927 52.0324 31.389C52.0662 31.444 52.2901 31.7742 52.6958 32.2653C54.0436 33.9035 57.3941 37.3112 62.384 37.9462C66.8964 38.5219 71.5694 36.672 76.2592 32.4515ZM62.591 36.3884C58.3405 35.855 55.3491 32.9426 54.052 31.4313C56.3294 31.0842 62.291 30.4111 66.7358 32.024C67.1414 32.1721 67.5935 31.9605 67.7414 31.5541C67.8893 31.1477 67.678 30.6948 67.2724 30.5466C63.0811 29.0269 57.8462 29.3571 54.9604 29.7169C57.9391 26.9103 61.0319 25.5641 64.1796 25.7123C69.3681 25.9578 73.3693 30.2206 74.6579 31.77C70.5173 35.3216 66.4612 36.8752 62.591 36.3884Z" fill="#314E49"/>
<path d="M34.0756 36.1384C33.6954 36.0918 33.4038 35.7574 33.4207 35.3637C33.4292 35.1605 33.5137 34.9743 33.6616 34.8388C33.8095 34.7033 33.9996 34.6314 34.2024 34.6356C46.32 35.0547 55.4801 29.56 61.4248 18.304C65.8823 9.86727 66.7696 1.13 66.7781 1.0411C66.8161 0.626248 67.1879 0.321459 67.5977 0.363791C68.016 0.401889 68.316 0.774409 68.2738 1.18503C68.2653 1.27392 67.378 10.2356 62.76 18.994C58.4715 27.1217 50.0255 36.6929 34.1432 36.1426C34.1221 36.1426 34.101 36.1426 34.0756 36.1384Z" fill="#314E49"/>
<path d="M72.8454 12.7122H73.9228C70.6356 5.22797 63.1699 0 54.4872 0C45.8046 0 38.3388 5.22797 35.0559 12.7122H36.1333C37.1304 10.5618 38.4867 8.61452 40.1768 6.92548C42.0358 5.06288 44.2033 3.5982 46.6116 2.57801C49.1087 1.51971 51.7578 0.98633 54.4915 0.98633C57.2251 0.98633 59.8743 1.52394 62.3713 2.57801C64.7838 3.5982 66.9471 5.06288 68.8062 6.92548C70.492 8.61875 71.844 10.5618 72.8454 12.7122Z" fill="#314E49"/>
<path d="M69.0512 35.3556C68.9709 35.4402 68.8864 35.5249 68.8019 35.6096C66.9429 37.4722 64.7754 38.9369 62.3671 39.957C59.87 41.0153 57.2209 41.5487 54.4872 41.5487C51.7536 41.5487 49.1044 41.0111 46.6074 39.957C44.1948 38.9369 42.0316 37.4722 40.1725 35.6096C38.5585 33.9925 37.2487 32.1468 36.2601 30.1064H35.1742C38.5247 37.4383 45.9102 42.5351 54.4872 42.5351C61.1122 42.5351 67.0274 39.4956 70.9187 34.7291L69.0512 35.3556Z" fill="#314E49"/>
</svg>
