<svg width="92" height="161" viewBox="0 0 92 161" fill="none" xmlns="http://www.w3.org/2000/svg">
<path d="M4.13184 19.5518C5.27716 25.9028 7.07697 41.8138 5.11355 54.6496C3.15013 67.4853 10.513 92.7557 14.4398 103.786L30.1472 148.912C32.1106 152.923 39.4734 160.745 53.2174 159.943L78.251 151.419C83.4868 148.244 93.2711 138.884 90.5223 126.851L68.9247 61.1677C66.9613 55.9866 60.2857 42.616 49.2905 30.5825C38.2954 18.549 35.5466 11.1952 35.5466 9.02246" stroke="#437457"/>
<path d="M3.15017 11.0279C-1.16935 14.638 2.00485 18.2146 4.13188 19.5517L35.5466 9.02235C38.688 3.00559 33.5831 1.16713 30.638 1C23.2752 2.83845 7.4697 7.41788 3.15017 11.0279Z" stroke="#437457"/>
<path d="M42.014 81.267C41.9293 82.0463 41.209 82.7308 40.9072 83.4158C40.3665 84.6433 39.7092 85.8173 39.2178 87.072C38.3443 89.3028 37.5293 91.556 36.6547 93.7895C36.1749 95.0148 35.8653 96.2738 35.4313 97.5053C35.1826 98.211 35.0235 98.8203 35.0235 99.5681C35.0235 101.614 34.7905 103.625 34.7905 105.664C34.7905 108.004 35.1742 110.434 36.0139 112.626C36.3959 113.623 36.7285 114.473 37.3796 115.304C38.0265 116.13 38.9845 116.722 39.9234 117.142C40.6413 117.463 41.4934 117.616 42.2471 117.83C43.0953 118.07 43.9153 118.528 44.8102 118.63C45.7175 118.733 46.5607 118.874 47.4899 118.874C48.5385 118.874 49.5871 118.874 50.6356 118.874C51.6036 118.874 52.5379 118.708 53.4966 118.63C54.1958 118.572 55.1282 118.365 55.762 118.041C56.715 117.554 57.2861 116.731 58.0922 116.084C58.6272 115.655 59.2721 115.289 59.7492 114.801C60.408 114.128 60.907 113.285 61.5615 112.593C61.9737 112.158 62.2195 111.694 62.4612 111.145C62.9184 110.107 63.2479 109.127 63.5681 108.044C63.9492 106.754 63.9176 105.391 63.9176 104.057C63.9176 102.64 63.7816 100.523 63.0344 99.2737C61.4801 96.6758 61.1659 94.3567 59.1075 92.2541C56.891 89.99 52.1293 88.3754 50.2721 85.736C49.974 85.2183 42.1305 81.7779 42.1305 81.1479" stroke="#ABBBA1" stroke-linecap="round"/>
<path d="M43.4413 82.7175C43.4413 83.7504 42.9436 84.5792 42.4337 85.4473C41.8413 86.4558 41.1957 87.4262 40.5597 88.4008C40.1532 89.0235 39.8199 89.6983 39.4109 90.325C38.8648 91.1618 38.3002 91.9917 37.9214 92.9205" stroke="#ABBBA1" stroke-linecap="round"/>
<path d="M46.3329 86.6555C46.2237 87.1389 45.766 87.6097 45.5054 88.008C44.7715 89.1295 44.0331 90.2469 43.2857 91.3592C42.02 93.2432 40.7609 95.1458 39.3624 96.9281C37.9565 98.7199 36.3909 100.612 35.3806 102.676" stroke="#ABBBA1" stroke-linecap="round"/>
<path d="M51.4148 88.9827C51.0475 89.6718 50.6196 90.2676 50.1298 90.8721C48.3342 93.0881 46.5402 95.3103 44.6634 97.4553C43.2977 99.0162 41.8584 100.5 40.4625 102.03C38.871 103.774 37.5875 105.678 36.3445 107.688" stroke="#ABBBA1" stroke-linecap="round"/>
<path d="M54.0434 91.6675C54.0158 91.9216 53.7115 92.2314 53.5761 92.4133C52.1961 94.2674 50.6928 96.0335 49.2633 97.848C46.7226 101.073 44.2378 104.367 41.5529 107.469C39.5297 109.807 37.3319 112.04 35.5559 114.579" stroke="#ABBBA1" stroke-linecap="round"/>
<path d="M56.1464 95.1582C56.1007 95.438 55.8901 95.6865 55.7229 95.8991C54.9126 96.9291 53.9889 97.8714 53.1138 98.8426C51.2861 100.871 49.5296 102.979 47.774 105.073C46.5691 106.51 45.5335 108.076 44.3276 109.513C43.47 110.535 42.7725 111.708 42.1274 112.879" stroke="#ABBBA1" stroke-linecap="round"/>
<path d="M56.9347 100.797C56.4697 101.527 55.6949 102.177 55.1239 102.825C53.6177 104.535 52.1501 106.275 50.7138 108.046C48.598 110.655 46.44 113.231 44.3176 115.833" stroke="#ABBBA1" stroke-linecap="round"/>
<path d="M53.4301 110.194C53.3964 110.401 53.2665 110.589 53.1576 110.761C52.6959 111.488 52.1777 112.179 51.6778 112.879C50.4582 114.586 49.2592 116.306 47.9978 117.981" stroke="#ABBBA1" stroke-linecap="round"/>
<path d="M55.1826 114.043C55.0157 114.408 54.5771 114.75 54.3161 115.017C53.6039 115.748 52.8787 116.467 52.1841 117.215C51.6388 117.803 51.0993 118.393 50.5388 118.965" stroke="#ABBBA1" stroke-linecap="round"/>
<path d="M58.5119 112.163C58.5119 112.594 58.2631 112.962 58.0738 113.332C57.696 114.068 57.3593 114.641 56.7595 115.206" stroke="#ABBBA1" stroke-linecap="round"/>
</svg>
