<svg width="59" height="64" viewBox="0 0 59 64" fill="none" xmlns="http://www.w3.org/2000/svg">
<path d="M24.3596 7.07481C24.3596 6.30561 24.204 5.36889 24.4768 4.64144C24.772 3.85415 25.3019 3.10821 25.8376 2.47042C27.094 0.974548 29.4199 0.677585 31.1894 1.31932C31.8567 1.56133 32.2645 1.88388 32.8008 2.32284C33.3503 2.77258 33.9019 3.58886 34.1315 4.23138C34.4448 5.108 34.7812 5.90956 34.7812 6.84917" stroke="#437457" stroke-linecap="round"/>
<path d="M34.7814 6.84912C35.6956 6.84912 37.38 6.84912 40.6282 8.48524C41.8212 9.25783 43.4524 10.4486 44.2012 12.0847C46.6737 17.4872 44.0024 23.5375 46.7997 31.3909C47.1827 32.1624 47.4274 32.8874 47.7742 33.6815C48.5637 35.4892 49.6164 36.6288 50.6976 38.2626C51.1165 38.8956 52.3542 40.2312 52.9149 40.7557C53.4922 41.2957 53.7679 41.9181 54.2706 42.5165C55.1504 43.564 55.5699 43.8254 56.8691 46.4432C57.1681 47.0456 57.5465 50.2878 57.8436 51.6788C57.8436 52.2243 58.2732 53.9012 57.7096 53.7751C54.9202 54.2966 54.6686 54.3279 52.9713 54.6238C51.0542 54.9581 49.0722 55.0729 47.1246 55.2783C44.8263 55.5206 42.2931 55.81 39.9785 55.9327C36.6924 56.1069 33.1998 56.2599 29.9092 56.2599C26.2718 56.2599 23.7955 56.1028 20.1646 55.9327C18.3057 55.8456 16.1518 55.7902 14.3178 55.4735C12.5378 55.1661 9.9395 55.1354 8.14626 54.951C5.73951 54.7036 3.39884 53.6867 1.00026 53.3149C1.00026 53.3149 1.00025 52.3332 1.00024 51.6788C1.00023 51.3516 1.32565 49.7863 1.6499 48.7338C1.89303 47.9446 2.44732 47.1215 2.65547 46.3246C3.92363 43.171 6.19737 41.5349 9.77038 36.6265C10.5196 35.1169 10.7448 34.6632 11.3945 33.027C12.3689 31.0637 12.3104 30.7364 12.6938 29.4276C13.0523 28.2036 13.6682 27.1146 13.6682 25.8281C13.6682 24.7786 13.993 22.3013 13.993 21.247C13.993 19.4307 14.3178 15.3569 14.7205 13.6626C14.9675 12.6233 15.2528 11.5333 15.9419 10.4486C16.5398 9.50752 17.566 8.15802 24.3872 7.17634" stroke="#437457" stroke-linecap="round"/>
<path d="M15.0856 39.3091C14.4584 39.3091 13.6555 40.2691 13.2449 40.6542C11.5399 42.2533 9.50737 43.5337 7.86572 45.1875" stroke="#ABBBA1" stroke-linecap="round"/>
<path d="M14.0966 41.5011C13.6662 41.5405 13.3321 41.9486 13.0087 42.1985C12.2386 42.7936 11.6094 43.4957 10.9317 44.1912C9.89552 45.2548 8.98914 46.8576 7.76685 47.6785" stroke="#ABBBA1" stroke-linecap="round"/>
<path d="M13.0085 44.2908C12.7693 44.3175 12.4917 44.6637 12.3162 44.8111C11.7501 45.2863 11.1984 45.7815 10.6458 46.2724C9.72534 47.0902 8.86206 47.9982 8.04141 48.9183C7.8566 49.1254 7.46997 49.3701 7.46997 49.671" stroke="#ABBBA1" stroke-linecap="round"/>
<path d="M13.1474 46.4432C12.2675 46.5417 11.4294 47.8955 10.8287 48.4304C10.3917 48.8194 9.94433 49.2161 9.53193 49.6315C9.28284 49.8825 9.11153 50.1699 8.79565 50.329" stroke="#ABBBA1" stroke-linecap="round"/>
<path d="M11.8752 49.7155C11.2831 49.7155 10.5018 50.302 10.095 50.7119" stroke="#ABBBA1" stroke-linecap="round"/>
<path d="M23.2613 60.6331C22.7988 60.2707 22.1755 59.3981 22.1755 58.8146C22.642 58.8146 32.5076 59.0757 33.9999 59.0757C35.431 59.0757 35.9277 59.1266 36.7302 58.8778C37.388 58.6739 37.0065 59.507 36.8131 59.8049C36.4929 60.2982 36.0244 60.6915 35.6871 61.1823C35.3699 61.6439 34.9907 62.109 34.5969 62.5056C34.1681 62.9376 33.7185 63.1645 33.2297 63.4779C32.9332 63.6679 32.5624 63.7041 32.2288 63.7975C31.9232 63.883 31.5001 64 31.1833 64H29.3737C28.552 64 27.9514 63.754 27.2424 63.3969C26.8158 63.182 26.3466 63.0588 25.9154 62.8657C25.4803 62.6709 25.1536 62.2769 24.7492 62.015C24.444 61.8174 24.128 61.4297 23.8645 61.1643C23.668 60.9663 23.4753 60.8008 23.2613 60.6331Z" fill="#ABBBA1"/>
</svg>
