<svg width="73" height="73" viewBox="0 0 73 73" fill="none" xmlns="http://www.w3.org/2000/svg">
<circle cx="36.5" cy="36.5" r="35.5" stroke="#437457" stroke-width="2"/>
<path d="M17.0875 32.5591C16.5536 32.9151 15.6452 33.6815 15 33.7532C15.887 34.6402 17.5461 35.1909 18.457 35.8491C19.8776 36.3463 21.0451 36.8665 22.5134 37.2102C23.2989 37.394 24.303 37.9999 24.303 37.9999C24.303 37.9999 28.0212 36.1379 28.4688 35.8491C30.7036 34.4073 33.045 32.3869 35.303 30.9999C37.0495 29.927 38.5414 28.5694 40.303 27.4999C41.5824 26.7231 43.0492 25.8521 44.303 25.0356C45.0813 24.5288 46.803 23.9999 46.803 23.9999C46.803 23.9999 45.9878 25.4119 45.6953 25.8706C45.1351 26.749 44.0276 27.2494 43.303 27.9999C41.7875 29.5695 39.803 30.9999 38.3137 32.8347C36.2715 34.0827 34.6219 35.8606 32.6523 37.2102C31.7416 37.8342 30.303 39 30.303 39C30.1296 39.178 28.8985 39.753 28.8279 40V48.4829L31.303 46.9999C32.4453 46.0003 31.828 46.6563 32.803 45.4999C33.1813 45.0511 34.303 43.9999 34.303 43.9999C34.303 43.9999 36.1147 45.458 36.303 45.4999C36.303 45.4999 36.0441 45.1462 36.3431 45.552C36.6555 45.976 37.2455 46.3461 37.7041 46.6041C38.1106 46.8327 38.3334 47.1901 38.7479 47.3974C39.1666 47.6067 39.5557 48.0728 39.9503 48.366C40.8633 49.0442 41.7297 49.4849 42.7643 49.9776C43.945 50.5398 44.803 51 44.803 51C45.2188 49.6486 46.5469 46.8826 46.803 45.4999C47.3601 42.4912 48.1006 39.9573 48.803 36.9999C49.3144 34.8464 49.7868 32.4999 50.0206 30.3797C50.303 27.8195 51.0457 25.704 51.303 23.9999C51.5322 22.4816 51.8546 20.4964 51.803 19C51.803 19 49.5764 19.4503 49.303 19.5C48.1117 19.7166 46.9993 20.1286 45.9291 20.7102C45.1397 21.1392 44.266 21.3701 43.4407 21.7289C42.4987 22.1385 41.6003 22.7173 40.6517 23.1485C39.4006 23.7172 38.1601 24.2156 36.8274 24.5847C35.7465 24.884 35.0063 25.3659 34.0134 25.7871C31.6458 26.7916 29.268 27.6772 26.9074 28.6429C25.4337 29.2457 23.8092 29.5841 22.3565 30.2378C21.0534 30.8242 19.6763 31.17 18.457 31.9162C18.0229 32.1818 17.4973 32.286 17.0875 32.5591Z" stroke="#437457" stroke-width="1.5" stroke-linecap="round"/>
</svg>
