<svg width="75" height="86" viewBox="0 0 75 86" fill="none" xmlns="http://www.w3.org/2000/svg">
<path d="M18.8543 68.4297C18.8543 72.5897 18.3982 80.498 18.4109 81.1643L18.3982 82.9999C18.92 82.5106 20.793 80.6926 20.793 80.6926C23.5192 78.5594 25.6999 75.8723 28.2054 73.4776C29.0416 72.6785 29.6411 71.7566 30.4862 70.9537C30.8585 70.5999 32.4234 69.4258 32.4234 69.4286" stroke="#437457" stroke-width="2" stroke-linecap="round"/>
<path d="M18.9198 68.4224C18.9198 68.4224 16.9192 67.9192 15.8387 67.2825C15.2315 66.8979 14.5991 66.4251 13.9507 66.1352C12.9959 65.7083 10.9886 64.1509 10.4029 63.2671C9.94839 62.5812 9.05911 62.0172 8.47692 61.4314C7.90523 60.8563 7.57685 60.0923 7.12114 59.4301C5.97459 57.764 4.6465 56.1953 3.97877 54.2547C2.15963 48.9677 1.45032 43.3654 1.07716 37.7341C0.911284 35.231 1.06448 32.6733 1.06448 30.1622C1.06448 27.873 1.66511 25.626 1.74871 23.3551C1.83097 21.1208 2.829 19.1936 3.57331 17.1344C4.29493 15.138 6.52561 11.5383 6.52561 11.5383C9.91739 7.03779 13.7246 5.68838 17.2578 4.00463C19.5352 2.91936 21.9469 2.04205 24.4212 1.65908C26.4004 1.35275 30.8827 1 32.9234 1C36.9613 1 42.9261 1.65908 42.9261 1.65908" stroke="#437457" stroke-width="2" stroke-linecap="round"/>
<path d="M32.4233 69.335C34.9133 69.335 37.9612 69.6614 40.3945 69.335C42.2312 69.0886 43.547 69.3906 45.4268 69.335C47.6838 69.2682 50.7606 68.6133 52.9287 67.9193C54.0798 67.8302 62.1942 64.7554 63.2147 64.1851C64.5985 63.4116 65.3821 62.4031 66.5218 61.3169C70.8145 57.2255 73.3596 51.938 73.8075 45.8544C74.2332 40.0733 73.8202 34.2883 73.8202 28.518C73.8202 24.864 71.9662 21.5502 71.2607 18.0014C70.7376 15.3703 68.9476 13.2501 67.4326 11.0632C65.0901 7.68192 47.9274 2.5095 42.9261 2.00635" stroke="#437457" stroke-width="2" stroke-linecap="round"/>
<path d="M38.3903 25.582C39.0828 25.582 40.0303 25.4112 40.6897 25.6434C41.2769 25.8502 41.9004 26.1021 42.4523 26.3797C43.287 26.7996 44.1001 27.5711 44.7578 28.2328C45.5124 28.9919 45.9812 29.7773 46.3192 30.7977C46.4695 31.2512 46.6242 31.6747 46.6242 32.1537C46.6242 32.3436 46.7041 33.1327 46.8438 33.203" stroke="#ABBBA1" stroke-width="2" stroke-linecap="round"/>
<path d="M35.8651 20.5012C37.918 20.5012 39.9744 20.6117 42.0131 20.6117C43.9053 20.6117 46.0331 21.2329 47.4272 22.6354C47.7132 22.9231 48.1372 23.3497 48.4275 23.6417C48.663 23.8787 49.7971 25.3474 49.9279 25.6544C50.3566 26.6607 50.1704 26.7105 50.6252 28.0179C51.1307 29.471 51.3449 31.1241 51.3449 32.6567C51.3449 33.4943 51.5645 34.3496 51.5645 35.1909" stroke="#ABBBA1" stroke-width="2" stroke-linecap="round"/>
<path d="M34.8771 15.3103C35.7989 15.3103 36.7039 15.0768 37.6156 14.9851C38.2715 14.9191 39.0053 14.7581 39.6467 14.7581C41.3206 14.7581 42.8854 14.9108 44.5382 15.0955C45.8777 15.2453 47.4377 15.809 48.5454 16.5805C49.8981 17.5226 51.5018 18.341 52.4977 19.7283C54.4074 22.3884 55.5674 25.3911 56.5903 28.4783C57.0792 29.9538 57.5866 32.0738 57.249 33.6448C57.0334 34.648 57.0538 35.7055 57.0538 36.7374" stroke="#ABBBA1" stroke-width="2" stroke-linecap="round"/>
<path d="M27.9221 30.1829C28.8634 29.1766 29.1056 26.6204 28.8634 25.9379C28.7143 25.5181 28.4687 25.142 28.3144 24.7229C27.8897 23.5692 26.9702 22.7933 26.2041 21.8513C25.5281 21.02 24.7879 19.6547 23.921 19.041C23.4417 18.7016 22.7451 17.6297 22.0871 17.6297C21.2454 17.6297 20.6251 17.479 19.7816 17.7401C18.8478 18.0292 17.9843 18.3395 17.287 19.041C16.5955 19.7367 16.3493 20.3458 15.994 21.2499C15.6125 22.2208 15.1157 23.1893 15.1157 24.2505C15.1157 25.4549 15.6983 26.5209 16.1587 27.6253C16.9341 29.4856 18.0936 31.1404 18.9033 32.9821C20.4135 36.4169 23.921 44.7743 27.4219 47.7933" stroke="#437457" stroke-width="2" stroke-linecap="round"/>
<path d="M27.9222 30.1829C25.9929 32.1512 26.8999 36.8013 27.4729 38.2837C28.1611 40.0641 29.6098 41.2378 30.7604 42.6526C31.8141 43.9482 33.3569 45.1792 34.7432 46.1256C35.9793 46.9695 36.9179 47.7823 38.4759 47.7823C39.6607 47.7823 40.8658 47.4894 41.7878 46.6778C42.4452 46.0991 42.9803 45.4814 43.7029 44.9782C46.3177 43.157 50.3004 45.9157 52.4492 47.4019C53.155 47.8901 53.7034 48.4808 54.468 48.8868C55.0905 49.2173 55.9594 49.7806 56.1758 50.4883C56.3692 51.1207 56.615 51.8429 56.615 52.5071C56.615 53.5411 55.8274 54.0922 55.1511 54.8633C54.512 55.5921 53.7799 56.2674 53.1018 56.9496C52.6064 57.4479 52.3297 57.9382 51.6746 58.2504C50.3882 58.8635 48.8488 58.7168 47.4539 58.7168C46.0491 58.7168 44.5762 58.8683 43.2211 58.4345C42.1536 58.0928 41.1596 57.4892 40.2569 56.8146C39.4618 56.2204 38.6697 55.8199 37.7928 55.3788C35.9736 54.4637 28.7951 49.4082 27.4729 47.7823" stroke="#437457" stroke-width="2" stroke-linecap="round"/>
</svg>
