<svg width="75" height="75" viewBox="0 0 75 75" fill="none" xmlns="http://www.w3.org/2000/svg">
<path d="M26.0655 2.2829C23.1154 2.2829 19.0334 4.62291 17.0163 6.52945C13.9127 8.98634 11.7676 10.9969 9.13053 14.3952C7.85861 16.0343 7.05775 18.6915 5.75889 20.2959C4.82423 21.4504 4.25435 22.7135 3.58636 24.0464C3.02524 25.1661 2.65038 26.7678 2.38925 27.9981C1.33126 32.9825 0.594341 37.3762 1.24475 42.4232C1.77718 46.5548 3.15849 51.769 5.75889 55.2172C7.51323 57.5435 8.68938 59.9031 10.6091 62.092C11.7831 63.4306 14.5077 66.0883 16.0306 67.0092C22.8797 71.1505 27.7684 73.191 35.745 73.8932C40.9572 74.3521 46.9339 73.3255 51.5165 70.9429C55.6753 68.7806 58.9408 68.1329 61.8665 64.5506C63.1519 62.9767 66.2428 59.4492 67.7808 58.1582C69.5651 56.6607 70.6691 53.1614 71.8069 51.1181C72.9592 49.0489 73.4059 46.5542 73.6248 44.2175C74.0684 39.4813 74.1562 34.6234 73.6839 29.8854C73.0434 23.4596 68.9579 17.4285 64.8237 12.9201C62.9113 10.8347 59.4674 8.48611 57.4308 6.52945C54.1226 3.35117 48.9418 2.98049 44.6164 1.76679C40.7518 0.682381 36.7757 1.04162 32.7878 1.11888C30.5199 1.16281 27.1693 1.3806 25.0014 2.34188C24.5087 2.56034 24.1926 2.90574 23.6712 3.07913" stroke="#437457" stroke-width="2" stroke-linecap="round"/>
<path d="M20.3801 24.2219C18.7077 24.2219 17.0353 24.2219 15.3628 24.2219C14.4011 24.2219 12.0294 24.4104 12.0294 24.4104C12.0294 24.4104 13.5662 27.6939 13.5662 28.1635C13.5662 28.1635 14.4167 32.1572 15.0448 33.0807C16.6476 35.4372 16.4243 35.6368 18.002 37.9979C18.8688 39.2951 19.0036 40.2143 19.9734 41.4399C20.9722 42.7021 22.4326 44.1105 23.4234 45.3736C24.1083 46.2467 25.0466 47.4346 25.827 48.2132C26.8313 49.2152 28.2339 49.4098 29.3378 50.2908C29.3378 50.2908 32.7281 51.95 33.7735 52.1817C34.5859 52.3618 37.3543 52.8945 38.2092 52.9189L40.3291 52.576C40.3291 52.576 40.7377 49.3166 40.6735 48.324C40.6735 48.324 41.5774 45.8741 42.645 45.856C43.7733 45.837 45.3378 46.4046 45.3378 46.4046C46.2489 47.2812 47.2452 47.4194 48.2245 48.2132C49.1378 48.9535 50.1337 50.0313 51.0236 50.7826C51.6714 51.3294 53.0442 52.1817 53.0442 52.1817L56.4635 52.576C57.6751 52.3977 58.9498 51.9707 60.1148 51.6075C60.8487 51.3787 61.6306 51.0307 61.8665 50.2908C62.1254 49.4791 61.9208 48.6208 61.3736 47.8322C60.9466 47.2168 59.5249 45.7557 58.9093 45.3736C57.4878 44.4912 56.8987 42.7826 55.4593 41.9316C54.2487 41.2159 53.0442 38.9813 53.0442 38.9813C53.0442 38.9813 54.1999 36.7848 54.9665 36.031C56.2138 34.8043 57.6221 33.1613 58.4165 31.6055C59.539 29.4072 59.6588 28.9881 60.8365 26.819C61.1175 26.3015 61.5777 25.2337 61.8665 24.7215C61.8665 24.7215 60.3477 24.2355 59.8951 24.2297C58.251 24.2087 54.9665 23.2463 54.9665 23.2463H52.5022L51.5164 24.7215C51.5164 24.7215 47.8885 30.2409 46.3602 33.13C45.9343 33.9351 45.6578 34.3504 45.3378 35.2018C45.1526 35.6947 44.8029 37.8142 44.2639 38.1215C42.358 39.2081 41.6692 36.9951 41.6592 36.1704C41.6282 33.5958 42.4105 29.2229 41.9219 26.6883C41.8189 26.154 41.5599 24.9833 41.2901 24.4988C40.9104 23.8169 40.5764 23.2378 39.8308 23.0219L33.2806 22.7544L29.8306 25.213L31.8021 26.1964C32.5345 27.8561 32.2949 28.7659 32.2949 30.1302C32.2949 31.846 32.0636 32.8595 31.8021 34.5556C31.7448 34.9272 31.3092 36.0308 31.3092 36.5225C31.0413 36.7898 30.6827 37.9979 30.3235 37.9979C29.5281 37.9979 28.512 35.8667 28.2326 35.1418C27.806 34.0354 26.5295 33.4293 25.827 32.5532C24.5651 30.9795 23.2737 29.4045 22.0039 27.8561C21.1589 26.8258 21.1502 25.2987 20.2255 24.3761" stroke="#437457" stroke-width="2" stroke-linecap="round"/>
</svg>
