<svg width="75" height="75" viewBox="0 0 75 75" fill="none" xmlns="http://www.w3.org/2000/svg">
<path d="M1.09985 73.7688C1.09985 73.7688 4.19898 65.3423 5.73698 61.8907C6.83842 59.4188 7.80822 56.4003 8.66059 53.8179" stroke="#437457" stroke-width="2" stroke-linecap="round"/>
<path d="M8.66059 53.818C8.66059 52.5206 7.20463 51.3204 6.49564 50.2862C5.44035 48.7468 4.54466 46.6998 3.99762 44.9043C3.32859 42.7085 2.36292 40.7811 1.83267 38.5321C1.44018 36.8673 1.66614 34.9869 1.66614 33.281C1.66614 28.9976 2.04036 24.5943 4.21967 20.7794C7.11786 15.7061 10.3608 10.6945 15.1924 7.36213C17.75 5.59824 20.8111 3.73981 23.8707 3.02674C28.1506 2.0293 32.4818 1.60006 36.8604 1.23279C39.9679 0.972138 43.27 0.732452 46.2974 1.68128C51.9732 3.46016 56.7779 6.54733 60.9524 10.7632C64.4612 14.3066 67.4083 18.1251 70.3524 22.1996C73.594 26.6858 73.9421 33.6797 73.9421 39.0179C73.9421 41.3024 74.2508 43.8489 73.4425 46.0255C72.0818 49.69 70.3695 52.7733 67.9284 55.8549C64.3101 60.4226 59.8313 64.0751 54.7722 66.9363C49.7764 69.7616 45.3622 70.9727 39.636 70.9727C37.2428 70.9727 34.6922 71.2215 32.3085 70.954C30.2471 70.7227 28.392 69.5304 26.4983 68.805C24.5481 68.0579 18.9312 64.3025 17.5625 62.8435C16.2302 63.8143 1 74 1 74" stroke="#437457" stroke-width="2" stroke-linecap="round"/>
<path d="M29.8105 19.6173C31.4213 21.7088 31.9754 22.9424 32.7711 25.3175C32.7711 25.3175 30.2487 30.1379 29.8105 30.7771C29.4086 31.3634 26.9972 33.3309 26.9794 33.6362C26.8672 35.5633 31.3096 38.4634 32.7711 39.4852C33.9885 40.3364 35.0991 41.1931 36.4534 41.8585C38.1218 42.6782 40.1398 44.3178 42.0212 45.2678C43.4323 44.7928 44.6028 43.7745 45.3137 42.8928C46.2545 41.8585 47.1952 40.9927 48.1359 40.0427C49.0766 39.0926 50.4877 40.0427 50.4877 40.0427C52.1663 40.7357 55.6617 42.8928 55.6617 42.8928C55.6617 42.8928 56.2895 43.257 56.2895 44.7363C56.2895 45.725 56.2532 47.7622 55.7899 48.6045C54.8304 50.3486 51.9693 51.2713 50.2942 52.2111C48.508 53.2133 47.0376 53.383 45.1132 52.8278C43.0418 52.2301 39.9222 51.7999 38.2583 50.493C38.2583 50.493 32.8285 47.7537 30.7326 45.7429C26.4774 41.6604 19.5901 37.0679 18.0328 30.7771C17.4318 28.3491 17.7154 27.5614 18.0329 25.3174C18.4218 22.5679 18.5032 19.617 22.2661 18.1919C23.2069 17.8356 26.7583 16.634 27.4605 16.8366C28.3808 17.827 29.327 18.9894 29.8105 19.6173Z" stroke="#437457" stroke-width="2" stroke-linecap="round"/>
</svg>
